<?xml version="1.0" standalone="no"?>
<!DOCTYPE svg PUBLIC "-//W3C//DTD SVG 20010904//EN"
 "http://www.w3.org/TR/2001/REC-SVG-20010904/DTD/svg10.dtd">
<svg version="1.0" xmlns="http://www.w3.org/2000/svg"
 width="800.000000pt" height="762.000000pt" viewBox="0 0 800.000000 762.000000"
 preserveAspectRatio="xMidYMid meet">
<metadata>
Created by potrace 1.16, written by Peter Selinger 2001-2019
</metadata>
<g transform="translate(0.000000,762.000000) scale(0.100000,-0.100000)"
fill="#000000" stroke="none">
<path d="M3866 7560 c-6 -45 -17 -153 -58 -555 -22 -215 -22 -254 -25 -1708
-3 -1201 -1 -1488 9 -1492 7 -3 23 -6 36 -8 24 -4 51 -44 44 -65 -6 -18 -22
-14 -20 6 3 42 -2 49 -34 48 l-33 -1 -3 -1400 -2 -1400 25 -295 c29 -333 63
-661 68 -667 5 -4 18 125 58 552 l29 320 0 1364 c0 750 -3 1367 -6 1372 -3 5
-2 9 2 9 4 0 0 6 -9 13 -15 11 -16 15 -2 41 13 25 15 214 15 1535 1 1442 0
1516 -20 1731 -26 288 -60 622 -64 635 -2 6 -6 -10 -10 -35z"/>
<path d="M2575 6079 c-105 -4 -281 -15 -390 -25 -110 -9 -249 -18 -310 -19
-197 -4 -302 -63 -480 -269 l-108 -126 -185 2 c-153 3 -186 6 -192 18 -34 73
-36 75 -70 78 -24 2 -42 -3 -57 -17 -40 -37 -99 -229 -110 -358 -5 -67 -4 -73
20 -97 36 -36 81 -34 142 6 42 28 58 32 131 36 46 3 84 2 84 0 0 -3 -24 -46
-54 -95 -29 -49 -81 -143 -115 -210 l-62 -121 -43 -6 c-24 -4 -54 -3 -67 2
-13 5 -94 9 -179 8 -170 -3 -205 -12 -262 -73 -64 -67 -91 -208 -59 -305 12
-37 61 -88 84 -88 33 -1 37 -15 18 -75 -24 -79 -54 -138 -106 -205 -58 -75
-70 -100 -100 -219 -71 -282 -96 -470 -98 -736 -3 -360 48 -1865 69 -2055 12
-101 63 -165 149 -189 28 -8 544 -11 1738 -11 l1697 0 0 170 0 170 -1056 0
c-1000 0 -1055 1 -1050 18 3 9 8 55 12 101 6 70 9 81 19 68 9 -13 28 -17 78
-17 43 0 86 -7 119 -20 50 -19 77 -20 501 -20 l448 0 34 26 c19 14 32 31 29
38 -3 9 10 10 58 3 96 -13 300 -25 434 -26 115 -1 122 -2 144 -26 34 -36 106
-35 150 1 21 18 38 25 55 22 21 -4 25 -1 25 18 0 22 -4 24 -49 24 -41 0 -51
-4 -56 -20 -12 -38 -88 -38 -100 0 -5 17 -20 19 -153 24 -184 5 -318 14 -404
26 -106 16 -177 13 -185 -6 -3 -9 -1 -25 6 -35 6 -11 8 -20 4 -20 -57 -10 -91
0 -110 30 -7 11 -12 87 -14 195 -2 97 -7 176 -11 176 -4 0 -8 -80 -8 -178 0
-141 3 -182 15 -198 8 -10 15 -22 15 -26 0 -5 -171 -8 -379 -8 -356 0 -381 1
-422 20 -31 14 -66 20 -116 20 -54 0 -74 4 -81 15 -6 12 -80 23 -353 51 -209
21 -362 41 -389 51 -58 21 -107 75 -125 138 -21 74 -34 196 -21 200 13 5 243
21 422 31 l121 6 5 -70 c8 -104 36 -133 184 -190 135 -52 257 -73 465 -79 198
-6 297 3 427 38 90 24 139 48 186 92 35 34 36 36 36 109 0 42 3 90 7 108 l6
33 539 -6 538 -7 0 75 0 75 -485 0 -486 0 -24 -25 c-14 -13 -25 -29 -25 -35 0
-6 -4 -8 -10 -5 -6 4 -10 69 -11 158 -1 121 -3 143 -10 107 -6 -25 -8 -100 -7
-168 l3 -122 -48 0 c-41 0 -48 3 -44 18 3 9 2 87 -2 172 l-8 155 -1 -159 -2
-158 -29 31 c-16 17 -36 31 -44 31 -9 0 -17 14 -22 37 -17 93 -99 193 -193
236 -44 21 -62 22 -287 22 -282 0 -312 -6 -399 -86 -55 -50 -89 -108 -101
-171 l-7 -36 -141 -4 c-156 -4 -166 -7 -235 -70 -40 -37 -45 -39 -65 -25 -48
31 -59 60 -58 143 1 44 8 118 17 166 14 75 20 92 46 113 l30 25 534 0 c354 0
533 3 529 10 -4 6 -193 10 -533 10 -504 0 -528 -1 -559 -20 -17 -10 -36 -27
-41 -37 -19 -35 -41 -169 -44 -261 -2 -81 0 -95 20 -121 12 -17 22 -33 22 -36
0 -3 -22 -5 -50 -5 l-50 0 0 233 0 233 31 30 30 29 904 3 904 2 0 -77 c-1
-112 -1 -111 21 -133 19 -19 32 -20 477 -18 l458 3 -442 2 -442 3 -3 338 c-3
366 0 394 47 412 16 6 187 10 431 10 l404 0 0 50 0 50 -709 0 c-846 0 -761 16
-761 -146 0 -154 -16 -146 275 -142 l233 3 7 -100 c4 -55 5 -129 3 -165 l-3
-65 -905 -5 c-852 -5 -907 -6 -932 -23 -41 -28 -58 -75 -58 -161 l0 -76 -162
-1 c-273 -1 -308 -9 -373 -81 -62 -68 -68 -81 -9 -22 41 42 73 65 100 73 22 6
126 11 242 11 l202 0 0 -100 0 -100 -191 0 c-110 0 -198 -4 -209 -10 -11 -6
-47 -57 -81 -115 -33 -58 -65 -105 -69 -105 -15 0 -49 51 -60 89 -45 161 -101
491 -130 773 -43 417 -23 737 67 1113 38 159 56 205 102 257 53 61 82 119 121
239 55 172 107 272 177 345 65 68 155 118 242 134 29 5 178 10 330 10 l277 0
37 -44 c22 -27 51 -49 74 -56 83 -27 284 -110 385 -160 118 -58 169 -103 187
-167 21 -73 50 -274 62 -422 10 -133 9 -152 -6 -180 -32 -63 4 -61 -972 -62
-488 -1 -901 -4 -918 -8 -30 -6 -30 -7 -37 -93 -8 -113 -10 -118 -74 -191 -69
-79 -70 -93 -1 -19 79 85 79 85 91 185 l12 92 44 7 c25 3 438 7 919 7 985 1
917 -4 956 78 l20 42 748 1 c512 0 747 3 747 10 0 7 -85 11 -257 10 -142 -1
-479 -1 -749 0 l-492 0 -7 103 c-8 122 -39 351 -58 424 -18 69 -52 117 -107
153 -58 37 -253 125 -400 180 -75 28 -127 53 -148 74 l-33 31 68 7 c37 3 262
6 498 7 778 1 1685 14 1685 23 0 5 -303 8 -724 6 l-724 -3 24 28 c13 16 24 36
24 46 0 16 19 18 212 24 116 4 431 7 700 7 l488 0 0 190 0 190 -874 0 -874 0
-7 38 c-4 20 -12 43 -18 51 -10 11 124 12 881 7 623 -5 892 -4 892 3 0 6 -13
11 -30 11 -16 0 -30 5 -30 10 0 6 14 10 30 10 l30 0 0 225 0 225 -147 0 c-438
0 -1283 -32 -1578 -60 -181 -17 -295 -69 -403 -183 l-53 -57 -65 0 -66 0 44
52 c117 142 190 208 275 250 78 39 90 42 176 44 50 1 173 9 272 18 295 26 523
35 1048 42 474 7 497 8 497 26 0 17 -19 18 -447 16 -247 0 -534 -5 -638 -9z
m-1739 -406 c-4 -16 -9 -57 -12 -93 -6 -62 10 -130 50 -222 6 -12 4 -18 -5
-18 -8 0 -34 -14 -59 -30 -52 -34 -62 -36 -85 -14 -16 17 -16 18 7 154 13 74
51 193 73 227 21 32 39 30 31 -4z m19 -96 c1 -69 20 -116 38 -98 15 15 1147
16 1147 1 0 -6 -127 -11 -357 -12 -326 -2 -339 -3 -143 -8 118 -3 209 -9 203
-13 -7 -4 -17 -26 -23 -47 l-11 -40 -278 0 c-153 0 -333 -3 -399 -7 l-122 -6
-1 39 c-1 33 -2 35 -8 14 -7 -24 -8 -24 -18 -5 -21 38 -43 142 -43 201 0 31 3
54 7 50 4 -4 7 -35 8 -69z m2705 -97 c0 -7 -253 -10 -740 -10 -487 0 -740 3
-740 10 0 7 253 10 740 10 487 0 740 -3 740 -10z m-1698 -95 c4 -16 14 -102
23 -190 21 -222 32 -233 223 -234 104 -1 121 -8 80 -35 -19 -12 -76 -15 -293
-17 -238 -2 -270 0 -273 13 -2 12 8 18 38 23 57 10 66 34 79 225 18 237 23
253 79 248 30 -3 37 -7 44 -33z m-614 -83 c-1 -4 -28 -52 -59 -107 -32 -55
-74 -135 -95 -177 -56 -113 -62 -110 211 -93 299 20 272 22 277 -21 l4 -35
-110 5 c-61 3 -151 7 -201 9 -49 2 -59 2 -20 0 38 -2 74 -8 79 -13 7 -7 -79
-10 -232 -10 l-242 0 54 109 c54 107 141 260 178 314 18 25 24 27 90 27 38 0
68 -3 66 -8z m-609 -472 c-10 -6 -71 -11 -137 -13 -113 -3 -122 -5 -156 -30
-43 -33 -56 -74 -56 -175 0 -69 2 -76 31 -104 33 -33 33 -60 0 -51 -37 9 -70
52 -77 100 -17 114 25 217 105 260 40 21 57 23 175 23 89 -1 126 -4 115 -10z
m1956 -1639 c47 -6 17 -9 -130 -10 -240 -1 -235 1 -235 -113 0 -123 -11 -118
249 -118 143 0 211 -4 201 -10 -8 -5 -108 -10 -227 -10 -263 0 -253 -6 -253
133 0 133 -3 131 220 135 63 1 142 -2 175 -7z m78 -118 c9 -53 14 -100 11
-105 -3 -4 -96 -8 -206 -8 -244 0 -238 -3 -238 106 0 105 -1 104 231 104 l186
0 16 -97z m-494 -688 c92 -32 149 -97 182 -207 17 -55 26 -69 45 -74 47 -12
17 -106 -52 -162 -98 -81 -234 -122 -426 -129 -153 -6 -253 9 -365 54 -105 42
-193 136 -193 207 0 22 5 26 28 26 42 0 57 18 77 95 16 60 26 77 70 122 76 75
103 81 371 82 171 1 231 -2 263 -14z m-1486 -292 l-122 -4 -46 -68 c-25 -38
-55 -92 -66 -119 -20 -47 -23 -50 -66 -55 -43 -5 -113 7 -113 19 0 17 116 207
133 219 17 12 58 15 212 13 145 -2 161 -3 68 -5z"/>
<path d="M1818 2381 c-124 -40 -197 -169 -169 -296 9 -40 24 -67 57 -104 94
-105 245 -115 346 -23 165 149 75 415 -145 428 -34 2 -74 0 -89 -5z"/>
<path d="M4060 6072 c0 -18 24 -19 523 -25 599 -8 898 -22 1285 -63 48 -5 66
-4 72 6 11 18 83 -2 175 -48 117 -60 323 -282 536 -580 111 -154 217 -333 330
-555 l94 -186 45 -11 c25 -6 99 -23 165 -36 65 -13 123 -28 126 -32 4 -4 9
-72 11 -152 l3 -145 150 -417 c82 -229 151 -415 153 -413 3 2 -46 166 -169
564 -16 52 -28 96 -26 97 3 3 188 -155 251 -215 27 -25 60 -70 74 -100 24 -53
25 -64 39 -449 l13 -394 -30 -28 c-17 -16 -37 -44 -45 -63 -17 -41 -31 -234
-41 -553 -8 -247 -12 -234 66 -223 l45 6 -54 1 -53 2 6 53 c5 47 20 342 29
597 4 98 17 139 55 173 20 18 20 17 28 -130 13 -216 10 -738 -5 -883 -7 -69
-24 -190 -37 -270 -15 -83 -23 -163 -20 -186 l5 -41 -77 -31 c-135 -56 -169
-59 -782 -71 -558 -12 -1716 -35 -2230 -46 -146 -3 -365 -8 -487 -11 l-223 -6
0 -134 0 -134 1878 0 1877 0 40 23 c45 25 81 73 94 126 35 133 60 819 42 1136
-25 422 -31 554 -46 1000 -9 253 -21 478 -26 500 -24 92 -58 134 -229 280
-219 188 -222 193 -230 407 l-5 156 75 7 c119 10 292 35 327 46 18 6 44 24 58
40 23 28 25 38 25 128 0 117 -17 175 -67 226 -54 55 -107 75 -220 82 -128 7
-304 -12 -361 -39 -56 -27 -94 -80 -127 -178 -29 -87 -43 -105 -75 -95 -23 7
-100 121 -215 315 -162 273 -365 541 -554 732 -102 102 -127 122 -202 158 -87
42 -178 61 -201 43 -8 -7 -37 -8 -78 -2 -309 38 -783 59 -1337 59 -423 0 -443
-1 -443 -18z m3691 -1033 c50 -15 102 -59 123 -104 10 -21 20 -73 23 -126 l6
-90 -29 17 c-27 15 -46 14 -331 -18 -284 -32 -304 -33 -320 -17 -10 9 -29 20
-43 24 -20 5 -18 2 10 -16 l35 -23 -40 -6 c-22 -4 -49 -9 -61 -13 -16 -6 -23
-1 -37 28 -9 20 -17 38 -17 40 0 3 16 5 35 5 48 0 68 23 100 119 40 121 84
164 184 181 73 12 319 11 362 -1z"/>
<path d="M4060 5353 l0 -616 418 7 c611 10 1776 -15 2097 -44 126 -12 349 -38
383 -46 20 -4 16 9 -47 134 -154 308 -350 613 -559 870 -188 232 -252 254
-837 282 -173 8 -1139 29 -1387 30 l-68 0 0 -617z"/>
<path d="M3224 4816 c-3 -8 -4 -29 -2 -48 l3 -33 218 -3 217 -2 0 50 0 50
-215 0 c-176 0 -217 -3 -221 -14z"/>
<path d="M783 4696 c-104 -34 -205 -123 -250 -222 -37 -82 -43 -197 -13 -283
82 -244 345 -349 573 -229 73 39 130 102 170 186 29 61 32 76 32 162 -1 75 -6
107 -24 153 -32 80 -115 168 -198 209 -57 28 -78 33 -157 35 -57 2 -107 -2
-133 -11z"/>
<path d="M6542 4600 c-322 -170 -586 -426 -767 -743 l-59 -102 -91 6 c-222 17
-586 31 -655 26 -97 -7 -101 -8 -97 -21 2 -7 57 -14 143 -18 674 -32 718 -35
787 -68 80 -39 79 -36 52 -125 -13 -43 -34 -124 -45 -181 -31 -154 -19 -168
148 -160 59 3 220 8 357 11 611 13 923 33 1230 80 88 13 187 28 220 33 85 13
14 15 -90 3 -44 -6 -95 -11 -114 -13 l-34 -3 2 80 c2 98 -22 245 -51 305 -12
25 -44 66 -70 92 -63 61 -134 88 -233 88 -41 0 -75 1 -75 3 0 1 7 38 16 82 21
108 21 310 0 399 -16 67 -65 190 -73 183 -2 -2 8 -28 21 -58 59 -129 70 -344
28 -534 l-17 -80 -75 -8 c-138 -14 -463 -58 -645 -88 -270 -44 -387 -69 -422
-90 l-31 -20 -59 30 c-32 16 -70 33 -85 36 -16 4 -28 9 -28 11 0 9 112 185
150 235 166 221 416 449 620 565 45 26 45 26 -15 -26 -101 -88 -254 -250 -321
-340 -75 -100 -169 -263 -217 -375 -57 -133 -52 -137 11 -10 143 292 341 554
552 729 47 39 97 78 110 87 14 9 23 19 20 22 -3 3 -47 -16 -98 -43z m754 -789
c89 -65 128 -139 127 -241 0 -63 -27 -149 -50 -163 -6 -4 -1 13 11 36 16 32
21 61 21 122 0 93 -16 133 -77 194 -68 67 -71 67 -295 34 l-198 -29 -6 -99
c-6 -117 -13 -108 -9 13 l2 84 -28 -4 c-28 -3 -29 -4 -36 -83 -11 -117 -16
-122 -17 -17 -1 81 -3 92 -18 92 -36 0 -42 -15 -46 -100 l-3 -85 -2 88 c-2 85
-3 88 -24 85 -21 -3 -23 -9 -28 -88 -4 -54 -8 -79 -14 -68 -4 9 -6 46 -4 83 1
36 2 65 1 65 -2 0 -121 -16 -264 -35 -144 -19 -269 -35 -277 -35 -47 0 23 13
288 54 263 40 400 61 730 110 148 22 171 20 216 -13z m-133 -129 c9 -23 17
-51 17 -62 0 -26 3 -25 38 10 64 64 172 22 172 -67 0 -22 -7 -48 -16 -59 -15
-18 -15 -18 -5 3 29 59 -16 133 -79 133 -22 0 -41 -9 -61 -29 -33 -34 -36 -58
-12 -104 15 -30 15 -31 0 -18 -10 7 -17 20 -17 27 0 33 -16 10 -28 -38 -7 -29
-25 -73 -40 -98 l-28 -45 -234 -12 c-129 -7 -239 -11 -245 -8 -5 2 1 4 15 4
14 1 118 10 233 20 236 21 230 18 272 113 24 52 27 70 23 137 -3 52 -11 90
-26 120 -12 25 -22 47 -22 50 0 12 28 -37 43 -77z m-1123 -118 c-16 -110 -11
-126 15 -51 13 38 26 71 29 75 12 11 5 -27 -11 -64 -11 -27 -17 -69 -17 -136
-1 -138 -15 -131 -41 20 l-13 77 -1 -82 c0 -46 -5 -83 -10 -83 -17 0 -33 70
-33 151 0 87 -8 96 -19 21 l-6 -47 -2 44 c-1 30 7 58 26 92 27 50 49 67 34 26
-15 -38 -24 -145 -12 -127 6 8 11 21 11 29 0 17 52 133 57 128 2 -2 -1 -35 -7
-73z"/>
<path d="M5260 4595 c-5 -13 -19 -42 -30 -65 -11 -22 -18 -40 -15 -40 2 0 18
27 35 60 17 33 32 60 35 60 2 0 20 -14 40 -31 43 -38 60 -92 75 -241 13 -124
6 -163 -40 -202 -52 -43 -96 -46 -715 -46 -383 0 -585 -3 -585 -10 0 -7 201
-10 583 -10 683 0 703 2 758 87 24 35 25 135 4 257 -18 101 -42 156 -84 185
-38 27 -49 26 -61 -4z"/>
<path d="M1602 4525 c-179 -50 -276 -237 -212 -409 94 -250 434 -271 565 -35
27 49 30 63 30 144 0 81 -3 95 -30 144 -71 129 -218 194 -353 156z m171 -170
c33 -25 67 -91 67 -133 0 -37 -19 -84 -31 -76 -5 3 -6 -1 -3 -9 6 -18 -21 -41
-37 -31 -8 4 -9 3 -5 -4 10 -16 -34 -32 -86 -32 -101 0 -172 85 -154 185 8 40
53 98 68 88 7 -3 8 -1 4 6 -21 34 130 39 177 6z"/>
<path d="M2335 4510 c113 -12 1325 -12 1325 0 0 7 -238 9 -697 8 -384 0 -666
-4 -628 -8z"/>
<path d="M4060 4330 c0 -11 568 -12 820 0 110 4 12 7 -332 8 -320 1 -488 -1
-488 -8z"/>
<path d="M4067 3543 c-4 -3 -7 -96 -7 -205 l0 -198 695 0 c517 0 701 3 720 12
37 17 51 48 85 195 26 108 29 131 18 151 -28 53 -11 52 -786 52 -395 0 -722
-3 -725 -7z"/>
<path d="M271 3486 c-7 -8 -11 -32 -9 -53 l3 -38 1698 -3 1697 -2 0 55 0 55
-1689 0 c-1452 0 -1690 -2 -1700 -14z"/>
<path d="M6310 3049 c-845 -16 -2117 -39 -2183 -39 -49 0 -68 -3 -65 -12 5
-14 -14 -14 1228 12 1152 25 1744 40 1749 46 5 5 -193 3 -729 -7z"/>
<path d="M6867 2890 c-205 -7 -200 -2 -191 -169 4 -77 11 -124 21 -140 l16
-24 225 6 c191 6 228 9 243 23 17 15 19 33 19 141 0 118 -1 125 -25 148 -27
28 2 26 -308 15z"/>
<path d="M4062 2278 l3 -543 685 0 c377 0 697 3 712 7 40 12 89 57 109 103 17
36 19 72 19 398 0 388 -2 401 -55 425 -18 9 -122 12 -360 12 l-335 0 0 49 c0
42 -4 53 -26 70 -26 20 -38 21 -390 21 l-364 0 2 -542z"/>
<path d="M6830 2420 c-497 -22 -823 -39 -867 -47 -35 -6 -43 -17 -17 -27 31
-12 1514 30 1561 44 21 6 13 7 -27 4 -92 -7 -1112 -25 -1118 -19 -3 3 11 5 31
5 56 0 1039 50 1062 54 50 8 -245 2 -625 -14z"/>
<path d="M6515 2334 c-269 -6 -512 -12 -538 -13 -64 -1 -52 -17 23 -32 l60
-12 0 -124 c0 -68 5 -133 10 -143 7 -14 7 -25 -2 -39 -7 -11 -10 -23 -6 -26
11 -11 1119 14 1180 27 51 11 59 10 77 -6 20 -18 21 -18 30 5 29 77 44 109 48
106 7 -8 -65 -272 -101 -367 -19 -51 -34 -96 -32 -98 6 -6 83 197 110 293 62
212 81 379 50 423 -15 22 -19 22 -217 20 -111 0 -422 -7 -692 -14z"/>
<path d="M5893 1901 c-35 -32 -63 -65 -63 -73 0 -18 27 -43 56 -52 43 -13
1371 86 1406 105 19 10 20 8 14 -23 -5 -23 -4 -28 3 -18 5 8 12 32 16 54 l8
39 -21 -21 c-28 -28 -28 -28 -317 -46 -137 -9 -443 -30 -678 -48 -310 -23
-433 -29 -445 -22 -33 21 -25 45 34 105 75 76 67 76 -13 0z"/>
<path d="M6910 1754 c-731 -55 -1365 -80 -2502 -100 -232 -4 -348 -10 -348
-17 0 -19 1024 4 1673 37 l248 13 47 -24 c44 -22 47 -27 53 -71 6 -40 4 -49
-13 -62 -11 -8 -31 -25 -43 -36 -22 -20 -40 -22 -327 -34 -472 -19 -800 -26
-1228 -29 -357 -1 -432 -6 -402 -25 12 -7 991 11 1297 24 354 16 615 29 670
35 49 6 935 35 1047 35 82 0 107 26 143 147 35 117 32 124 -69 122 -39 -1
-150 -8 -246 -15z"/>
<path d="M7741 1568 c-36 -5 -95 -22 -132 -38 -82 -36 -154 -55 -282 -74 -53
-8 -101 -18 -106 -21 -5 -3 -323 -9 -708 -15 -2158 -29 -2453 -35 -2453 -43 0
-5 120 -6 288 -3 158 4 593 11 967 16 1753 25 1844 27 2000 46 161 19 206 30
297 71 43 18 114 40 159 48 132 23 109 33 -30 13z"/>
</g>
</svg>
